<?xml version="1.0" encoding="UTF-8"?> <svg xmlns="http://www.w3.org/2000/svg" xmlns:xlink="http://www.w3.org/1999/xlink" width="803px" height="322px" viewBox="-0.5 -0.5 803 322"><defs></defs><g><rect x="1" y="20" width="800" height="300" rx="30" ry="30" fill="none" stroke="#000000" stroke-width="2"></rect><rect x="41" y="74" width="350" height="225" rx="22.5" ry="22.5" fill="#f5f5f5" stroke="#666666" stroke-width="2" stroke-dasharray="2 4"></rect><rect x="109" y="212" width="213" height="77" rx="7.7" ry="7.7" fill="none" stroke="#0000cc" stroke-width="2" stroke-dasharray="6 6"></rect><g fill="#000000" font-family="Helvetica" text-anchor="middle" font-size="12px"><text x="214.66" y="228.19">Database Security Group</text></g><rect x="411" y="74" width="350" height="225" rx="22.5" ry="22.5" fill="#f5f5f5" stroke="#666666" stroke-width="2" stroke-dasharray="2 4"></rect><rect x="481" y="212" width="213" height="77" rx="7.7" ry="7.7" fill="none" stroke="#0000cc" stroke-width="2" stroke-dasharray="6 6"></rect><g fill="#000000" font-family="Helvetica" text-anchor="middle" font-size="12px"><text x="586.66" y="228.19">Database Security Group</text></g><path d="M 51.87 36 C 46 36 41.46 31.43 41.46 27.19 L 41.46 25.43 C 41 20.07 45.2 15.87 48.12 15.04 C 47.95 11.25 49.57 6.93 53 4.04 C 57.96 0 63.78 0.62 67.3 2.53 C 69.78 3.81 72.01 6.07 73.3 9.06 C 75.95 7.23 78.78 7.78 80.4 8.73 C 82.58 10.01 83.75 12.28 83.78 14.5 C 86.03 14.75 88.7 15.78 91.02 18.85 C 92.23 20.5 92.97 23.42 93 25.17 L 93 26.98 C 93 31.56 88.23 36 82.61 36 Z" fill="#f58536" stroke="none"></path><rect x="41" y="0" width="0" height="0" fill="none" stroke="#a3a3a3"></rect><path d="M 59.16 29.37 L 56.75 29.37 L 53.89 16.93 L 55.94 16.93 L 57.99 26.92 L 60.18 16.93 L 62.24 16.93 Z M 65.38 22.76 L 66.81 22.76 C 67.58 22.76 68.18 22.37 68.47 21.74 C 68.69 21.24 68.76 20.31 68.52 19.55 C 68.22 18.68 67.41 18.44 66.78 18.44 L 65.38 18.44 Z M 65.38 29.37 L 63.48 29.37 L 63.48 16.93 L 67.33 16.93 C 68.38 16.93 69.57 17.28 70.16 18.49 C 70.64 19.45 70.64 20.77 70.49 21.54 C 70.33 22.35 69.93 23.19 69.14 23.71 C 68.74 23.95 68.26 24.23 67.13 24.27 L 65.38 24.27 Z M 79.67 20.79 L 77.76 20.79 C 77.79 20.04 77.66 19.37 77.4 18.9 C 77.13 18.4 76.69 18.08 75.83 18.15 C 75.32 18.21 74.66 18.3 74.29 19.54 C 73.86 21.21 73.91 23.57 74.04 25.27 C 74.19 26.71 74.52 27.41 75.01 27.79 C 75.55 28.14 76.49 28.15 77 27.72 C 77.6 27.21 77.79 26.18 77.76 24.83 L 79.67 24.83 C 79.68 25.78 79.58 26.82 79.15 27.71 C 78.66 28.7 77.8 29.4 76.42 29.54 C 74.64 29.67 73.56 29.15 72.95 28.23 C 72.36 27.42 71.99 25.87 71.97 23.41 C 71.94 21.15 72.14 19.19 72.91 17.99 C 73.46 17.16 74.37 16.51 76.15 16.55 C 77.73 16.58 78.74 17.22 79.25 18.25 C 79.6 19.01 79.69 19.83 79.67 20.79 Z" fill="#ffffff" stroke="none"></path><path d="M 214.41 94.5 C 204.37 94.5 195.5 86.22 195.5 75.5 L 195.5 73.32 C 195.5 64.65 202.7 54.5 214.55 54.5 C 224.98 54.5 233.5 63.09 233.5 73.51 L 233.49 75.22 C 233.49 86.14 224.85 94.5 214.41 94.5 Z" fill="#f58534" stroke="none"></path><rect x="195.5" y="54.5" width="0" height="0" fill="none" stroke="#a3a3a3"></rect><path d="M 200.14 84.06 L 200.14 78.38 L 202.45 78.38 L 202.45 73.46 L 206.01 73.46 L 206.01 69.05 L 214 69.05 L 214 65.16 L 208.95 65.16 L 208.95 58.19 L 220.04 58.19 L 220.04 65.16 L 215 65.16 L 215 69.05 L 222.79 69.05 L 222.79 73.46 L 226.32 73.46 L 226.32 78.38 L 228.62 78.38 L 228.62 84.06 L 223 84.06 L 223 78.38 L 225.3 78.38 L 225.3 74.48 L 219.22 74.48 L 219.22 78.38 L 221.51 78.38 L 221.51 84.06 L 215.89 84.06 L 215.89 78.38 L 218.2 78.38 L 218.2 73.46 L 221.77 73.46 L 221.77 70.08 L 207.02 70.08 L 207.02 73.46 L 210.57 73.46 L 210.57 78.38 L 212.87 78.38 L 212.87 84.06 L 207.25 84.06 L 207.25 78.38 L 209.55 78.38 L 209.55 74.48 L 203.46 74.48 L 203.46 78.38 L 205.76 78.38 L 205.76 84.06 Z" fill="#ffffff" stroke="none"></path><path d="M 584.91 94 C 574.61 94 565.5 85.51 565.5 74.53 L 565.5 72.29 C 565.5 63.41 572.89 53 585.06 53 C 595.76 53 604.5 61.8 604.5 72.48 L 604.49 74.24 C 604.49 85.43 595.62 94 584.91 94 Z" fill="#f58534" stroke="none"></path><rect x="565.5" y="53" width="0" height="0" fill="none" stroke="#a3a3a3"></rect><path d="M 570.27 83.3 L 570.27 77.48 L 572.63 77.48 L 572.63 72.44 L 576.28 72.44 L 576.28 67.92 L 584.48 67.92 L 584.48 63.93 L 579.31 63.93 L 579.31 56.78 L 590.69 56.78 L 590.69 63.93 L 585.52 63.93 L 585.52 67.92 L 593.5 67.92 L 593.5 72.44 L 597.13 72.44 L 597.13 77.48 L 599.49 77.48 L 599.49 83.3 L 593.73 83.3 L 593.73 77.48 L 596.08 77.48 L 596.08 73.48 L 589.84 73.48 L 589.84 77.48 L 592.2 77.48 L 592.2 83.3 L 586.43 83.3 L 586.43 77.48 L 588.8 77.48 L 588.8 72.44 L 592.46 72.44 L 592.46 68.97 L 577.32 68.97 L 577.32 72.44 L 580.96 72.44 L 580.96 77.48 L 583.33 77.48 L 583.33 83.3 L 577.55 83.3 L 577.55 77.48 L 579.92 77.48 L 579.92 73.48 L 573.67 73.48 L 573.67 77.48 L 576.03 77.48 L 576.03 83.3 Z" fill="#ffffff" stroke="none"></path><rect x="266" y="147" width="45" height="45" rx="4.5" ry="4.5" fill="#ffffff" stroke="#7a7a7a" stroke-width="2"></rect><g fill="#A3A3A3" font-family="Helvetica" text-anchor="middle" font-size="20px"><text x="287.66" y="176.66">C</text></g><rect x="191" y="147" width="45" height="45" rx="4.5" ry="4.5" fill="#ffffff" stroke="#7a7a7a" stroke-width="2"></rect><g fill="#A3A3A3" font-family="Helvetica" text-anchor="middle" font-size="20px"><text x="212.66" y="176.66">B</text></g><rect x="116" y="147" width="45" height="45" rx="4.5" ry="4.5" fill="#ffffff" stroke="#7a7a7a" stroke-width="2"></rect><g fill="#A3A3A3" font-family="Helvetica" text-anchor="middle" font-size="20px"><text x="137.66" y="176.66">A</text></g><path d="M 195 240.08 C 195 239.1 196.57 238.11 198.83 237.43 C 206.81 235 221.37 235.46 227.47 237.89 C 228.45 238.32 229.93 239 230 240.11 L 230 242.04 C 230 243.59 227.01 244.6 224.72 245.15 C 216.85 246.98 206.22 246.67 199.97 245.08 C 198.39 244.7 195 243.62 195 242.12 Z M 230 275.82 C 230 277.08 227.98 277.97 226.03 278.58 C 216.75 280.96 205.48 280.44 198.66 278.47 C 196.83 277.91 195 277 195 275.85 L 195 243.62 C 195.07 245.1 198.04 246.05 199.37 246.42 C 205.71 248.18 217.36 248.51 225.17 246.54 C 227.07 246.04 230 245.08 230 243.51 Z" fill="#2e73b8" stroke="none"></path><path d="M 200.3 243.22 C 206.68 244.77 215.9 245.08 224.62 243.25 C 227.69 242.48 230 241.51 230 240.11 L 230 242.04 C 230 243.59 227.02 244.6 224.72 245.15 C 216.86 246.98 206.24 246.67 199.97 245.08 C 198.39 244.7 195 243.63 195 242.12 L 195 240.08 C 195 241.5 197.53 242.54 200.3 243.22 Z M 230 273.92 L 230 275.82 C 230 277.08 227.98 277.97 226.03 278.58 C 216.76 281 205.49 280.43 198.66 278.47 C 196.82 277.9 195 277 195 275.85 L 195 273.93 C 195 275.35 197.43 276.23 199.29 276.79 C 205.24 278.5 217.22 279.02 225.47 276.85 C 226.92 276.43 230 275.51 230 273.92 Z" fill-opacity="0.3" fill="#000000" stroke="none"></path><rect x="195" y="235" width="0" height="0" fill="none" stroke="#7a7a7a" stroke-width="9"></rect><path d="M 201.3 272.87 L 201.3 253.33 L 209.05 253.33 L 212.5 266.38 L 215.96 253.33 L 223.74 253.33 L 223.74 272.87 L 218.85 272.87 L 218.85 257.69 L 214.51 272.87 L 210.5 272.87 L 206.16 257.74 L 206.16 272.87 Z" fill="#ffffff" stroke="none"></path><path d="M 603.44 239.89 L 603.44 241.85 C 603.43 243.67 599.55 244.7 597.48 245.17 C 590.34 246.71 580.84 246.69 573.53 244.95 C 570.87 244.31 568.5 243.18 568.5 241.96 L 568.5 239.87 C 568.64 238.13 572.46 237.08 574.2 236.69 C 579.64 235.46 589.22 235 597.05 236.55 C 598.96 236.95 603.3 238.01 603.44 239.89 Z M 603.44 243.47 L 603.44 276.05 C 603.5 277.58 600.63 278.61 598.3 279.2 C 591.27 280.89 580.72 280.98 573.16 279.08 C 571.38 278.58 568.62 277.67 568.5 276.19 L 568.5 243.48 C 568.63 245.09 571.97 246.12 574.29 246.67 C 581.01 248.09 590.33 248.23 597.74 246.63 C 601.71 245.7 603.34 244.57 603.44 243.47 Z" fill="#2e73b8" stroke="none"></path><path d="M 603.44 239.89 L 603.44 241.85 C 603.44 243.67 599.55 244.7 597.48 245.17 C 590.32 246.71 580.85 246.68 573.53 244.95 C 570.87 244.31 568.5 243.18 568.5 241.96 L 568.5 239.87 C 568.5 241.64 572.14 242.64 574.24 243.16 C 581.33 244.59 589.5 244.63 596.87 243.33 C 599.72 242.75 603.35 241.68 603.44 239.89 Z M 603.44 274.19 L 603.44 276.05 C 603.49 277.58 600.63 278.61 598.3 279.2 C 591.24 280.89 580.72 281 573.16 279.08 C 571.38 278.58 568.62 277.68 568.5 276.19 L 568.5 274.18 C 568.53 275.79 571.45 276.71 573.56 277.28 C 580.16 278.82 589.63 279.23 598.04 277.37 C 600.72 276.71 603.44 275.64 603.44 274.19 Z" fill-opacity="0.3" fill="#000000" stroke="none"></path><rect x="568.5" y="235" width="0" height="0" fill="none" stroke="#7a7a7a" stroke-width="9"></rect><path d="M 595.09 258.66 L 589.16 258.66 C 589.21 257.8 588.88 256.96 587.89 256.44 C 587.07 256 585.47 255.78 584.25 256.14 C 583.41 256.4 582.81 256.9 582.76 257.75 C 582.68 258.76 583.68 259.32 585.05 259.74 C 587.25 260.39 589.51 260.73 591.43 261.52 C 594.29 262.67 595.62 264.47 595.72 266.91 C 595.83 270.64 593.9 272.71 591.47 273.72 C 589.18 274.69 585.73 274.98 582.87 274.4 C 578.37 273.48 576.18 270.67 576.18 266.75 L 582.03 266.75 C 582.13 268.2 582.75 269.26 583.89 269.76 C 584.84 270.19 586.79 270.39 588.33 269.84 C 589.21 269.48 589.82 268.93 589.88 267.98 C 589.97 266.61 588.48 266.05 587.64 265.74 C 585.46 265.01 582.9 264.69 580.87 263.74 C 578.92 262.89 576.91 261.41 576.83 258.31 C 576.78 255.85 578.03 254.12 579.8 253.02 C 581.72 251.83 584.31 251.36 586.54 251.44 C 589.34 251.56 591.9 252.47 593.47 254.26 C 594.62 255.53 595.06 257.13 595.09 258.66 Z" fill="#ffffff" stroke="none"></path><rect x="638.5" y="146.5" width="45" height="45" rx="4.5" ry="4.5" fill="#ffffff" stroke="#7a7a7a" stroke-width="2"></rect><g fill="#A3A3A3" font-family="Helvetica" text-anchor="middle" font-size="20px"><text x="660.16" y="176.16">F</text></g><rect x="563.5" y="146.5" width="45" height="45" rx="4.5" ry="4.5" fill="#ffffff" stroke="#7a7a7a" stroke-width="2"></rect><g fill="#A3A3A3" font-family="Helvetica" text-anchor="middle" font-size="20px"><text x="585.16" y="176.16">E</text></g><rect x="488.5" y="146.5" width="45" height="45" rx="4.5" ry="4.5" fill="#ffffff" stroke="#7a7a7a" stroke-width="2"></rect><g fill="#A3A3A3" font-family="Helvetica" text-anchor="middle" font-size="20px"><text x="510.16" y="176.16">D</text></g><rect x="108" y="121" width="213" height="77" rx="7.7" ry="7.7" fill="none" stroke="#ff0000" stroke-width="2" stroke-dasharray="6 6"></rect><g fill="#000000" font-family="Helvetica" text-anchor="middle" font-size="12px"><text x="213.66" y="137.19">Private Web Security Group</text></g><rect x="479" y="120.5" width="213" height="77" rx="7.7" ry="7.7" fill="none" stroke="#ff0000" stroke-width="2" stroke-dasharray="6 6"></rect><g fill="#000000" font-family="Helvetica" text-anchor="middle" font-size="12px"><text x="584.66" y="136.69">Private Web Security Group</text></g><rect x="108" y="28" width="213" height="77" rx="7.7" ry="7.7" fill="none" stroke="#00cc0e" stroke-width="2" stroke-dasharray="6 6"></rect><g fill="#000000" font-family="Helvetica" text-anchor="middle" font-size="12px"><text x="213.66" y="44.19">Load Balancer Security Group</text></g><rect x="479" y="27" width="213" height="77" rx="7.7" ry="7.7" fill="none" stroke="#00cc0e" stroke-width="2" stroke-dasharray="6 6"></rect><g fill="#000000" font-family="Helvetica" text-anchor="middle" font-size="12px"><text x="584.66" y="43.19">Load Balancer Security Group</text></g><g fill="#000000" font-family="Helvetica" text-anchor="middle" font-size="10px"><text x="74" y="98">Availability</text><text x="74" y="110">Zone 1</text></g><g fill="#000000" font-family="Helvetica" text-anchor="middle" font-size="10px"><text x="444" y="98">Availability</text><text x="444" y="110">Zone 2</text></g></g></svg> 